{"title":"Kissing Darkness (2014) DVD RIP GAY INTREST","uid":10527230,"size":1025368039,"categoryP":"video","categoryS":"movies","magnet":"?xt=urn:btih:7c07e3d2f245251c6bcaf52d45b3e181336d4fa9&amp;dn=Kissing+Darkness+%282014%29+DVD+RIP+GAY+INTREST&amp;tr=udp%3A%2F%2Ftracker.openbittorrent.com%3A80&amp;tr=udp%3A%2F%2Fopen.demonii.com%3A1337&amp;tr=udp%3A%2F%2Ftracker.coppersurfer.tk%3A6969&amp;tr=udp%3A%2F%2Fexodus.desync.com%3A6969","seeders":7,"leechers":2,"uploader":"jmanwf","files":-1,"time":1405061158,"description":"Storyline\n\nA group of college boys, bored with the every day &quot;gay life&quot; of LA, decide to skip Pride weekend in exchange for a camping trip in the woods. Quickly overcome with boredom in their new surroundings, the boys venture into a game that ultimately unleashes the vengeful spirit of a local legend known as Malice Valeria. Overcome by her deadly plan of tainted love and her thirst to take back what was lost long ago, the boys must now band together before they fall victim to the poisons of a broken heart.\n\n\n\nFormat : MPEG-4\nFormat profile : Base Media / Version 2\nCodec ID : mp42\nFile size : 962 MiB\nDuration : 1h 27mn\nOverall bit rate mode : Variable\nOverall bit rate : 1 542 Kbps\nEncoded date : UTC 2014-07-11 01:35:29\nTagged date : UTC 2014-07-11 01:59:13\nWriting application : HandBrake 0.9.9 2013052900\n\nVideo\nID : 1\nFormat : AVC\nFormat/Info : Advanced Video Codec\nFormat profile : &lt;a class=&quot;__cf_email__&quot; href=&quot;/cdn-cgi/l/email-protection&quot; data-cfemail=&quot;dd90bcb4b39d91e9f3ed&quot;&gt;[email&amp;#160;protected]&lt;/a&gt;&lt;script cf-hash='f9e31' type=&quot;text/javascript&quot;&gt;\n/* &lt;![CDATA[ */!function(){try{var t=&quot;currentScript&quot;in document?document.currentScript:function(){for(var t=document.getElementsByTagName(&quot;script&quot;),e=t.length;e--;)if(t[e].getAttribute(&quot;cf-hash&quot;))return t[e]}();if(t&amp;&amp;t.previousSibling){var e,r,n,i,c=t.previousSibling,a=c.getAttribute(&quot;data-cfemail&quot;);if(a){for(e=&quot;&quot;,r=parseInt(a.substr(0,2),16),n=2;a.length-n;n+=2)i=parseInt(a.substr(n,2),16)^r,e+=String.fromCharCode(i);e=document.createTextNode(e),c.parentNode.replaceChild(e,c)}}}catch(u){}}();/* ]]&gt; */&lt;/script&gt;\nFormat settings, CABAC : Yes\nFormat settings, ReFrames : 4 frames\nCodec ID : avc1\nCodec ID/Info : Advanced Video Coding\nDuration : 1h 27mn\nBit rate : 1 246 Kbps\nWidth : 720 pixels\nHeight : 480 pixels\nDisplay aspect ratio : 16:9\nOriginal display aspect ratio : 16:9\nFrame rate mode : Variable\nFrame rate : 23.976 fps\nMinimum frame rate : 8.563 fps\nMaximum frame rate : 29.970 fps\nStandard : NTSC\nColor space : YUV\nChroma subsampling : 4:2:0\nBit depth : 8 bits\nScan type : Progressive\nBits/(Pixel*Frame) : 0.150\nStream size : 777 MiB (81%)\nWriting library : x264 core 130 r2273 b3065e6\ncrf_max=0.0 / nal_hrd=none / ip_ratio=1.40 / aq=1:1.00\nEncoded date : UTC 2014-07-11 01:35:29\nTagged date : UTC 2014-07-11 01:59:13\nColor primaries : BT.601 NTSC\nTransfer characteristics : BT.709\nMatrix coefficients : BT.601\n\nAudio\nID : 2\nFormat : AAC\nFormat/Info : Advanced Audio Codec\nFormat profile : LC\nCodec ID : 40\nDuration : 1h 27mn\nBit rate mode : Variable\nBit rate : 281 Kbps\nMaximum bit rate : 353 Kbps\nChannel(s) : 2 channels\nChannel positions : Front: L R\nSampling rate : 48.0 KHz\nCompression mode : Lossy\nStream size : 175 MiB (18%)\nLanguage : English\nEncoded date : UTC 2014-07-11 01:35:29\nTagged date : UTC 2014-07-11 01:59:12\n\n\n\n\n\nSUBTITLES: ENGLISH, GERMAN SPANISH FRENCH\n\n\n\n\n &lt;a href=&quot;\nhttp://www.imdb.com/title/tt2402194/&quot; rel=&quot;nofollow&quot; target=&quot;_NEW&quot;&gt;\nhttp://www.imdb.com/title/tt2402194/&lt;/a&gt;","torrent":{"xt":"urn:btih:7c07e3d2f245251c6bcaf52d45b3e181336d4fa9","amp;dn":"Kissing+Darkness+%282014%29+DVD+RIP+GAY+INTREST","amp;tr":["udp%3A%2F%2Ftracker.openbittorrent.com%3A80","udp%3A%2F%2Fopen.demonii.com%3A1337","udp%3A%2F%2Ftracker.coppersurfer.tk%3A6969","udp%3A%2F%2Fexodus.desync.com%3A6969"],"infoHash":"7c07e3d2f245251c6bcaf52d45b3e181336d4fa9","infoHashBuffer":{"type":"Buffer","data":[124,7,227,210,242,69,37,28,107,202,245,45,69,179,225,129,51,109,79,169]},"announce":[],"urlList":[]}}